<svg width="96" height="24" viewBox="0 0 96 24" fill="none" xmlns="http://www.w3.org/2000/svg">
<path d="M16.6898 1.62434L16.9892 2.32936C17.0174 2.39582 17.0175 2.47088 16.9894 2.53739L15.2764 6.59147C15.185 6.80773 14.8789 6.8089 14.7859 6.59334L13.7362 4.161C13.694 4.06328 13.5977 4 13.4913 4H6.09986C5.90961 4 5.78056 4.19351 5.85368 4.36915L11.7544 18.5433C11.8454 18.762 12.1552 18.7622 12.2466 18.5436L19.3151 1.63798C19.7299 0.645877 20.7001 0 21.7754 0H32.0051C33.9067 0 35.1972 1.93328 34.4679 3.68939L26.7502 22.2739C26.3162 23.3189 25.2958 24 24.1643 24H23.9033C22.7713 24 21.7506 23.3184 21.3169 22.2727L19.0756 16.8686C19.0485 16.8033 19.0485 16.73 19.0754 16.6647L20.757 12.589C20.8472 12.3702 21.1565 12.3687 21.249 12.5865L23.7533 18.4856C23.8455 18.7026 24.1533 18.7021 24.2446 18.4847L30.1778 4.37C30.2517 4.19425 30.1226 4 29.932 4H22.5444C22.4368 4 22.3397 4.06473 22.2983 4.1641L14.7513 22.2769C14.3165 23.3203 13.297 24 12.1667 24H11.8976C10.7685 24 9.74979 23.3218 9.31427 22.28L1.54481 3.69522C0.810333 1.93834 2.1009 0 4.00513 0H14.2353C15.3052 0 16.2716 0.639506 16.6898 1.62434Z" fill="#ff4414"/>
<path fill-rule="evenodd" clip-rule="evenodd" d="M51.4749 13.1765C51.6318 13.0197 51.8485 12.9227 52.0879 12.9227C52.3438 12.9227 52.5737 13.0335 52.7324 13.2097L52.7324 13.2079L55.8698 16.3442L55.8699 5.0669C55.8699 4.47767 56.3476 4 56.9368 4C57.5261 4 58.0037 4.47767 58.0037 5.0669V18.9331C58.0037 19.5223 57.5261 20 56.9368 20C56.5909 20 56.2834 19.8353 56.0884 19.5801L50.5783 14.0707L51.4749 13.1765ZM45.0412 18.4718L45.0441 18.4753L43.8724 19.6481C43.8323 19.6882 43.7898 19.7244 43.7455 19.7567C43.5609 19.9087 43.3247 20 43.0671 20C42.4779 20 42.0002 19.5223 42.0002 18.9331V5.0669C42.0002 4.47767 42.4779 4 43.0671 4C43.6563 4 44.134 4.47767 44.134 5.0669L44.1332 16.3702L49.2476 11.2571C49.4591 11.0456 49.7373 10.9415 50.0145 10.9447C50.292 10.9415 50.5703 11.0456 50.7818 11.2571L51.6947 12.1695C51.4068 12.239 51.1339 12.3861 50.9091 12.6108L45.0412 18.4718ZM62.8048 18.9331C62.8048 19.5223 62.3271 20 61.7379 20C61.1487 20 60.671 19.5223 60.671 18.9331V12.8C60.671 11.6218 61.6261 10.6667 62.8043 10.6667L63.1395 10.6666C62.9285 10.969 62.8048 11.3367 62.8048 11.7333V18.9331ZM72.2735 4C74.7041 4 76.6745 5.96995 76.6745 8.4C76.6745 10.8301 74.7041 12.8 72.2735 12.8L63.6042 12.7996L63.605 11.7333C63.605 11.1835 64.0211 10.7308 64.5556 10.6729L64.6719 10.6667H72.2735C73.5257 10.6667 74.5407 9.65184 74.5407 8.4C74.5407 7.16254 73.5489 6.15669 72.3166 6.13373L61.7377 6.13333C61.1486 6.13333 60.671 5.65577 60.671 5.06667C60.671 4.47756 61.1486 4 61.7377 4H72.2735ZM89.3526 10.9319L89.4773 10.9333C91.9816 10.9333 94.0117 12.963 94.0117 15.4667C94.0117 17.9704 91.9816 20 89.4773 20H79.0748C78.4857 20 78.0081 19.5224 78.0081 18.9333C78.0081 18.3442 78.4857 17.8667 79.0748 17.8667H89.4773C90.7884 17.8667 91.8539 16.8159 91.8775 15.5108L91.8779 15.4667L91.8738 15.2572C91.8032 13.4298 90.8129 11.8381 89.3526 10.9319ZM92.945 4C93.5341 4 94.0117 4.47756 94.0117 5.06667C94.0117 5.65577 93.5341 6.13333 92.945 6.13333H82.5425C81.2314 6.13333 80.1659 7.1841 80.1423 8.48924L80.1419 8.53333C80.1419 9.84409 81.1929 10.9094 82.4984 10.9329L86.5434 10.9333C88.2667 10.9333 89.7655 11.8945 90.5326 13.3099C90.2261 13.1603 89.8836 13.0736 89.5214 13.0671L82.5425 13.0667C80.0382 13.0667 78.0081 11.037 78.0081 8.53333C78.0081 6.02964 80.0382 4 82.5425 4H92.945Z" fill="#ff4414"/>
</svg>
